<mxfile host="app.diagrams.net" modified="2023-10-03T18:10:31.455Z" agent="Mozilla/5.0 (Linux; Android 8.0; GN5002) AppleWebKit/537.36 (KHTML, like Gecko) Chrome/95.0.4638.74 Mobile Safari/537.36" version="22.0.2" etag="cFUCEX2Ek4_Kcwt4Yv3L" type="github">
  <diagram name="Page-1" id="Znrh5LPfg7LmYDPInWr-">
    <mxGraphModel>
      <root>
        <mxCell id="0" />
        <mxCell id="1" parent="0" />
      </root>
    </mxGraphModel>
  </diagram>
</mxfile>
